# xmcd
#
# Track frame offsets: 
#        150
#        48335
#        126245
#        219266
#        227763
#
# Disc length: 3212 seconds
#
# Revision: 0
# Processed by: cddbd v1.5.2PL0 Copyright (c) Steve Scherf et al.
# Submitted via: ExactAudioCopy v1.0b1
#
DISCID=3e0c8a05
DTITLE=Jimi Hendrix  - Hell Fire Red - Disc 1
DYEAR=1900
DGENRE=
TTITLE0=Its Too Bad \\ Roomful Of Mirrors
TTITLE1=Redskin Jammin'
TTITLE2=Voodoo Child
TTITLE3=E.X.P.
TTITLE4=Up From The Skies
EXTD=
EXTT0=
EXTT1=
EXTT2=
EXTT3=
EXTT4=
PLAYORDER=
